<svg width="777" height="161" viewBox="0 0 777 161" fill="none" xmlns="http://www.w3.org/2000/svg" role="img" aria-labelledby="title desc"><title id="title">Collectividual logo</title><desc id="desc">Collectividual wordmark in orange and deep green with a radial symbol inside the letter o.</desc><text x="0" y="118" fill="#F27A25" font-family="Georgia, 'Times New Roman', serif" font-size="118" font-weight="700" letter-spacing="-7">c</text><g transform="translate(56 44)"><circle cx="38" cy="38" r="34" fill="#F27A25"/><circle cx="38" cy="38" r="8" fill="#F4F1EB"/><circle cx="38" cy="38" r="3.5" fill="#F27A25"/><g stroke="#F4F1EB" stroke-width="1.6" stroke-linecap="round"><path d="M38 6V31M38 45V70M6 38H31M45 38H70M15 15L32 32M44 44L61 61M61 15L44 32M32 44L15 61M24 9L35 31M52 67L41 45M9 52L31 41M67 24L45 35M52 9L41 31M24 67L35 45M9 24L31 35M67 52L45 41M31 7L37 31M45 69L39 45M7 45L31 39M69 31L45 37M45 7L39 31M31 69L37 45M7 31L31 37M69 45L45 39"/></g></g><text x="137" y="118" fill="#F27A25" font-family="Georgia, 'Times New Roman', serif" font-size="118" font-weight="700" letter-spacing="-7">llect</text><text x="382" y="118" fill="#1F5B4D" font-family="Georgia, 'Times New Roman', serif" font-size="118" font-weight="700" letter-spacing="-7">ividual</text></svg>
