<svg width="1200" height="320" viewBox="0 0 1200 320" fill="none" xmlns="http://www.w3.org/2000/svg" role="img" aria-labelledby="title desc">
  <title id="title">Collectividual logo</title>
  <desc id="desc">Collectividual wordmark in orange and deep green with a radial symbol inside the letter o.</desc>
  <rect width="1200" height="320" fill="transparent"/>
  <g transform="translate(48 72)">
    <text x="0" y="144" fill="#F27A25" font-family="Georgia, 'Times New Roman', serif" font-size="142" font-weight="700" letter-spacing="-9">c</text>
    <g transform="translate(97 41)">
      <circle cx="58" cy="58" r="49" fill="#F27A25"/>
      <circle cx="58" cy="58" r="10" fill="#F4F1EB"/>
      <circle cx="58" cy="58" r="5" fill="#F27A25"/>
      <g stroke="#F4F1EB" stroke-width="2.2" stroke-linecap="round">
        <line x1="58" y1="12" x2="58" y2="47"/>
        <line x1="58" y1="69" x2="58" y2="104"/>
        <line x1="12" y1="58" x2="47" y2="58"/>
        <line x1="69" y1="58" x2="104" y2="58"/>
        <line x1="25.5" y1="25.5" x2="49.5" y2="49.5"/>
        <line x1="66.5" y1="66.5" x2="90.5" y2="90.5"/>
        <line x1="90.5" y1="25.5" x2="66.5" y2="49.5"/>
        <line x1="49.5" y1="66.5" x2="25.5" y2="90.5"/>
        <line x1="38" y1="16" x2="52" y2="47"/>
        <line x1="78" y1="100" x2="64" y2="69"/>
        <line x1="16" y1="78" x2="47" y2="64"/>
        <line x1="100" y1="38" x2="69" y2="52"/>
        <line x1="78" y1="16" x2="64" y2="47"/>
        <line x1="38" y1="100" x2="52" y2="69"/>
        <line x1="16" y1="38" x2="47" y2="52"/>
        <line x1="100" y1="78" x2="69" y2="64"/>
      </g>
    </g>
    <text x="185" y="144" fill="#F27A25" font-family="Georgia, 'Times New Roman', serif" font-size="142" font-weight="700" letter-spacing="-9">llect</text>
    <text x="519" y="144" fill="#1F5B4D" font-family="Georgia, 'Times New Roman', serif" font-size="142" font-weight="700" letter-spacing="-9">ividual</text>
  </g>
</svg>
